<?xml version="1.0" encoding="utf-8"?>
<!-- Svg Vector Icons : http://www.sfont.cn -->
<!DOCTYPE svg PUBLIC "-//W3C//DTD SVG 1.1//EN" "http://www.w3.org/Graphics/SVG/1.1/DTD/svg11.dtd">
<svg version="1.1" xmlns="http://www.w3.org/2000/svg" xmlns:xlink="http://www.w3.org/1999/xlink" x="0px" y="0px" viewBox="0 0 1000 1000" enable-background="new 0 0 1000 1000" xml:space="preserve">
<metadata> Svg Vector Icons : http://www.sfont.cn </metadata>
<g><path d="M175.6,869.8v-372c0-16.4,7.8-30.2,18.4-41.1c9.2-9.5,23.8-16.8,42.1-16.8h527.3c16.2,0,31.5,5.4,42.4,16.5c10.7,10.9,18.7,24.1,18.7,40.8v373.3c0,8.4-2.6,17.7-5.4,23.5c-2.1,4.3-5.3,9.4-8.3,12.9c-9.8,11.4-23.7,21.5-43.1,21.5H232.4c-13,0-26.1-5.4-35.7-14C184,903,175.6,888.2,175.6,869.8L175.6,869.8z M283,378.2c-29.7,0-66-2.1-91.7,8.4c-10.6,4.3-20.5,10.2-29.4,17.3c-15.1,12-26.1,27.2-34.7,44.6c-6.3,12.7-11.5,32.9-11.5,51.8v368.2c0,23.3,7.2,49,20.5,67.8c10.2,14.4,22.3,27.7,37.5,36.7c16.2,9.5,34.6,17,56.8,17h538.4c17,0,35.6-5.6,46.9-11.3c39.7-19.9,68.5-62.3,68.5-108.3v-372c0-25.7-8.9-50.8-23.2-70.1c-3.4-4.5-6.4-8.8-10.3-12.8c-1.5-1.5-2.5-2.6-4-4.1c-1.6-1.6-2.4-1.9-4-3.5c-14.9-14.5-36.8-24.3-57.2-27.9c-8.3-1.4-19.4-1.9-29-1.9H344.1c-0.1-3.7-5.3-25.3-6.2-29.5c-5.9-28.9-16-61.9-16-91.3c0-20.5,1.5-35.6,6-54.3c2.7-11,6.3-21.5,11.1-31.5c10.8-22.8,26.2-42.9,45.4-58.8c9.2-7.6,18.7-13.5,29.2-19.3c16.9-9.3,35.2-15.3,54.3-18.9c40.5-7.7,83.4-1.5,118.5,20c1.3,0.8,2.2,1.6,3.4,2.2c1.7,1,2.2,1.1,3.9,2.4c11.5,8.7,23.2,17.3,32.7,28.4c9.5,11,18.5,23,25.2,36c18.1,35.8,17.8,46.3,27.6,83.3c1.7,6.6,3,13.1,4.9,19.5c6.4,21.3,33.3,28.1,49.2,11.9c2.6-2.6,4.6-5.2,6.1-8.9c4.4-11.1,2.6-15.7,0.3-26.9l-6.9-28.2c-4.8-22.5-11.5-45.4-21.7-66c-5.9-11.9-11.6-22.9-18.7-33.8c-9.1-14-19.7-26.7-31.3-38.5l-18.3-16.6c-18.4-14.8-38.9-26.4-60.8-35l-19.6-6.5c-2.4-0.7-4.3-1.4-6.7-2c-12.2-3.1-24.9-4.4-37.5-5.9l-33,0.2c-13.2,2-15.2,1.3-30.3,4.3c-5.1,1-9.1,1.8-14.1,3.2c-2.6,0.7-4.5,0.9-6.9,1.7c-14.8,4.9-29.8,10-43.7,17.1c-11.2,5.7-22.3,12.3-32.3,19.9l-9.8,7.6c-19.6,15.8-35.1,34.8-49,55.8c-1.4,2.1-1.9,3.3-3.2,5.5c-3.2,5.5-6.7,11.1-9.2,17.1c-3.6,8.6-7.2,15.6-10.1,25c-0.8,2.6-1.5,3.7-2.3,6.5c-0.8,2.7-1.2,4.2-2,6.8c-1.5,4.6-2.4,9.1-3.6,14c-3.2,13.1-6.1,32.3-5.9,46.8c0.1,6.4-1,10.1-0.2,16.5l0.8,16.8C264,299.9,283,369.5,283,378.2L283,378.2z"/><path d="M441,618.6v8.2c0,21.5,15.2,41.7,29,49.1c0,26.9,0,53.7,0,80.6c0,18.1-2,35.6,14.5,45.7c15,9.2,32.2,3.9,40.6-9.7c6.1-9.8,4.8-20.2,4.8-35.4c0-27.1,0-54.1,0-81.2c27.8-15,38.9-56.9,19.8-86.2c-6.5-10-15.5-18.6-26.7-23.1c-15.6-6.3-32.3-6.4-47.7,0.7c-1.8,0.8-2.6,1.5-4.4,2.5c-1.9,1-3,1.9-4.5,2.9c-1.7,1.1-2.3,1.5-3.9,3c-7.1,6.5-10.9,10.7-15.5,20.1C444,601.8,441,609.8,441,618.6L441,618.6z"/></g>
</svg>